<svg width="505" height="86" viewBox="0 0 505 86" fill="none" xmlns="http://www.w3.org/2000/svg">
<path d="M36.8404 81.5756C38.8761 82.8626 41.947 83.2931 44.9679 83.4017V75.7995H50.9113V83.3431L51.2046 83.3336C53.8306 83.2473 56.4478 82.9828 59.038 82.5417V70.8024H63.1578L47.9612 54.901L32.2349 70.8024H36.8421L36.8404 81.5756Z" fill="#1C75BC"/>
<path d="M60.2881 0.649536C68.4829 2.55419 77.1228 6.20994 82.0259 12.1991C82.1562 10.4436 82.3244 9.16266 82.5116 8.36043C82.9429 6.49891 83.8607 5.14634 85.1434 4.46401C86.4261 3.78168 89.1925 3.359 93.3287 3.359H94.3432V0.649536H60.2881Z" fill="#1C75BC"/>
<path d="M35.0955 0.649536C26.9006 2.55419 18.2607 6.20994 13.3576 12.1991C13.2274 10.4436 13.0592 9.16266 12.872 8.36043C12.4407 6.49891 11.522 5.14634 10.2393 4.46401C8.95658 3.78168 6.19104 3.359 2.05481 3.359H1.04297V0.649536H35.0955Z" fill="#1C75BC"/>
<path d="M92.6488 81.9448C88.8844 81.9448 86.3198 81.4482 84.9552 80.4551C83.5905 79.4622 82.6382 77.9414 82.3276 75.8944C82.2414 75.3527 82.1672 74.641 82.0947 73.7802C80.7482 75.0858 79.332 76.3177 77.8524 77.4704C72.989 81.2314 67.872 83.193 62.2529 84.6551H94.3421V81.9448H92.6488Z" fill="#1C75BC"/>
<path d="M3.21235 81.9448C6.97679 81.9448 9.54134 81.4482 10.906 80.4551C12.2706 79.4622 13.2238 77.9414 13.5335 75.8944C13.6155 75.3527 13.694 74.641 13.7664 73.7802C15.113 75.0858 16.5292 76.3177 18.0087 77.4704C22.8722 81.2314 27.9892 83.193 33.6082 84.6551H1.51904V81.9448H3.21235Z" fill="#1C75BC"/>
<path d="M69.4862 13.6379C69.6069 15.7651 69.6802 18.4254 69.6802 21.6378V37.2778H25.6378V21.6378C25.6378 18.4254 25.7111 15.7651 25.8319 13.6379C18.2418 23.5019 17.5707 39.2308 18.6058 50.9796C19.2329 58.1091 21.5387 65.368 25.3782 71.4459C25.5421 71.7047 25.718 71.954 25.8957 72.2007C25.7439 69.8924 25.637 66.8077 25.637 62.8957V46.4871H69.6802V62.8957C69.6802 66.8077 69.5767 69.8924 69.4215 72.2007C69.594 71.954 69.7743 71.7056 69.939 71.4459C73.7785 65.368 76.0843 58.1091 76.7114 50.9796C77.7474 39.2308 77.0754 23.5019 69.4862 13.6379Z" fill="#1C75BC"/>
<path d="M2.87061 42.1844C2.87061 29.4608 7.12616 19.2492 15.6373 11.5495C24.1484 3.84984 34.7649 0 47.4867 0C60.3321 0 71.0607 3.8093 79.6725 11.4279C88.2842 19.0465 92.5898 29.4407 92.5893 42.6105C92.5893 55.3772 88.466 65.7104 80.2194 73.6102C71.9728 81.51 61.1226 85.4611 47.6687 85.4634C34.5794 85.4634 23.8407 81.5123 15.4527 73.6102C7.06463 65.7081 2.87061 55.2328 2.87061 42.1844ZM16.794 42.6105C16.794 55.8614 19.4394 65.8102 24.7301 72.4569C30.0208 79.1036 37.9531 82.4264 48.527 82.4252C57.8064 82.4252 65.1412 79.1025 70.5314 72.4569C75.9216 65.8113 78.6164 55.9034 78.6158 42.733C78.6158 29.9284 75.9612 20.1115 70.6521 13.2825C65.343 6.45349 57.6414 3.03898 47.5471 3.03898C37.6184 3.03898 30.0104 6.37212 24.7232 13.0384C19.4359 19.7047 16.7929 29.562 16.794 42.6105Z" fill="#2BB673"/>
<path d="M160.303 41.9228C160.303 55.9158 151.819 64.4002 139.345 64.4002C126.68 64.4002 119.274 54.8393 119.274 42.6827C119.274 29.8946 127.442 20.3319 140.042 20.3319C153.148 20.3319 160.303 30.1492 160.303 41.9228ZM129.47 42.4927C129.47 50.8504 133.395 56.739 139.853 56.739C146.375 56.739 150.111 50.5338 150.111 42.2394C150.111 34.5783 146.439 27.993 139.79 27.993C133.267 27.993 129.47 34.1983 129.47 42.4927Z" fill="#231F20"/>
<path d="M172.903 32.7418L175.942 37.8706C176.829 39.4537 177.652 41.0362 178.475 42.4927H178.602C179.425 40.8462 180.184 39.2637 181.008 37.7439L183.731 32.7418H194.177L183.983 47.4972L194.304 63.706H183.414L180.311 58.1347C179.425 56.6148 178.665 55.0317 177.905 53.4492H177.715C176.955 55.095 176.132 56.6148 175.372 58.1347L172.46 63.706H161.885L172.398 47.9405L162.139 32.7418H172.903Z" fill="#231F20"/>
<path d="M199.497 63.7036V39.8337H195.444V32.7419H199.497V31.5387C199.497 27.8031 200.636 23.6876 203.422 21.1552C205.828 18.8755 209.184 18.0522 211.968 18.0522C214.12 18.0522 215.767 18.3055 217.097 18.6855L216.718 26.0915C215.712 25.788 214.666 25.6385 213.615 25.6482C210.449 25.6482 209.12 28.1173 209.12 31.1569V32.7394H215.325V39.8337H209.183V63.7036H199.497Z" fill="#231F20"/>
<path d="M249.959 47.8748C249.959 59.2082 241.917 64.4002 233.623 64.4002C224.569 64.4002 217.604 58.4489 217.604 48.4447C217.604 38.4405 224.189 32.0453 234.129 32.0453C243.627 32.0453 249.959 38.5672 249.959 47.8748ZM227.545 48.1914C227.545 53.5101 229.758 57.499 233.877 57.499C237.613 57.499 240.019 53.7634 240.019 48.1914C240.019 43.5693 238.246 38.8838 233.877 38.8838C229.253 38.8838 227.545 43.6326 227.545 48.1914V48.1914Z" fill="#231F20"/>
<path d="M255.91 42.9372C255.91 38.3784 255.783 35.4027 255.657 32.7431H263.951L264.268 38.4417H264.521C266.104 33.9463 269.903 32.0477 272.879 32.0477C273.765 32.0477 274.209 32.0477 274.908 32.1744V41.2262C274.052 41.0599 273.183 40.9751 272.312 40.9729C268.766 40.9729 266.36 42.8727 265.727 45.8483C265.595 46.558 265.532 47.2785 265.537 48.0002V63.7024H255.91V42.9372Z" fill="#231F20"/>
<path d="M309.475 18.7488V54.4593C309.475 57.9422 309.602 61.6145 309.729 63.7036H301.183L300.74 59.1448H300.613C298.65 62.6277 294.914 64.4002 290.925 64.4002C283.581 64.4002 277.692 58.1291 277.692 48.508C277.631 38.0605 284.148 32.0452 291.559 32.0452C295.358 32.0452 298.334 33.3751 299.726 35.5281H299.853V18.7488H309.475ZM299.851 45.8483C299.841 45.2767 299.798 44.7061 299.725 44.1391C299.155 41.5428 297.066 39.3904 294.089 39.3904C289.72 39.3904 287.441 43.3159 287.441 48.1914C287.441 53.4467 290.037 56.7372 294.026 56.7372C296.812 56.7372 299.028 54.8374 299.598 52.1151C299.788 51.4185 299.851 50.7219 299.851 49.9018V45.8483Z" fill="#231F20"/>
<path d="M339.993 21.0286V37.4274H355.885V21.0286H365.51V63.7037H355.885V45.8484H339.993V63.7037H330.306V21.0286H339.993Z" fill="#231F20"/>
<path d="M404.006 47.8748C404.006 59.2082 395.965 64.4002 387.671 64.4002C378.617 64.4002 371.651 58.4489 371.651 48.4447C371.651 38.4405 378.237 32.0453 388.177 32.0453C397.674 32.0453 404.006 38.5672 404.006 47.8748ZM381.592 48.1914C381.592 53.5101 383.806 57.499 387.925 57.499C391.66 57.499 394.066 53.7634 394.066 48.1914C394.066 43.5693 392.294 38.8838 387.925 38.8838C383.301 38.8838 381.592 43.6326 381.592 48.1914V48.1914Z" fill="#231F20"/>
<path d="M439.149 53.7635C439.149 57.8157 439.275 61.108 439.401 63.7037H431.042L430.599 59.3349H430.409C429.206 61.2346 426.293 64.4003 420.722 64.4003C414.451 64.4003 409.831 60.4747 409.831 50.9138V32.7419H419.519V49.3928C419.519 53.8883 420.975 56.6107 424.331 56.6107C426.99 56.6107 428.511 54.7742 429.143 53.255C429.396 52.6851 429.459 51.9252 429.459 51.1647V32.7419H439.149V53.7635Z" fill="#231F20"/>
<path d="M446.808 55.2826C448.58 56.3591 452.253 57.6256 455.102 57.6256C458.014 57.6256 459.217 56.6124 459.217 55.0293C459.217 53.4462 458.269 52.6869 454.659 51.4831C448.265 49.3313 445.794 45.8477 445.858 42.1755C445.858 36.4135 450.796 32.0447 458.458 32.0447C462.066 32.0447 465.296 32.8679 467.195 33.8178L465.486 40.4663C464.093 39.7064 461.434 38.6932 458.774 38.6932C456.432 38.6932 455.102 39.6431 455.102 41.2256C455.102 42.6821 456.305 43.442 460.104 44.7718C465.993 46.7976 468.462 49.7739 468.527 54.3321C468.527 60.0941 463.968 64.3363 455.104 64.3363C451.052 64.3363 447.443 63.4497 445.1 62.1844L446.808 55.2826Z" fill="#231F20"/>
<path d="M481.755 51.2937C482.072 55.2826 485.997 57.1824 490.493 57.1824C493.785 57.1824 496.445 56.7391 499.039 55.9158L500.305 62.4377C497.139 63.7036 493.277 64.3369 489.098 64.3369C478.588 64.3369 472.572 58.2589 472.572 48.5713C472.572 40.7196 477.448 32.0453 488.211 32.0453C498.215 32.0453 502.014 39.8337 502.014 47.4948C502.014 48.7677 501.909 50.0384 501.698 51.2937H481.755ZM493.088 44.7091C493.088 42.3661 492.076 38.4381 487.644 38.4381C483.591 38.4381 481.945 42.1103 481.692 44.7091H493.088Z" fill="#231F20"/>
</svg>
